<?xml version="1.0" encoding="utf-8" standalone="no"?>
<!DOCTYPE svg PUBLIC "-//W3C//DTD SVG 1.1//EN"
  "http://www.w3.org/Graphics/SVG/1.1/DTD/svg11.dtd">
<svg xmlns:xlink="http://www.w3.org/1999/xlink" width="576pt" height="360pt" viewBox="0 0 576 360" xmlns="http://www.w3.org/2000/svg" version="1.1">
 <metadata>
  <rdf:RDF xmlns:dc="http://purl.org/dc/elements/1.1/" xmlns:cc="http://creativecommons.org/ns#" xmlns:rdf="http://www.w3.org/1999/02/22-rdf-syntax-ns#">
   <cc:Work>
    <dc:type rdf:resource="http://purl.org/dc/dcmitype/StillImage"/>
    <dc:date>2026-01-15T23:14:26.549445</dc:date>
    <dc:format>image/svg+xml</dc:format>
    <dc:creator>
     <cc:Agent>
      <dc:title>Matplotlib v3.10.8, https://matplotlib.org/</dc:title>
     </cc:Agent>
    </dc:creator>
   </cc:Work>
  </rdf:RDF>
 </metadata>
 <defs>
  <style type="text/css">*{stroke-linejoin: round; stroke-linecap: butt}</style>
 </defs>
 <g id="figure_1">
  <g id="patch_1">
   <path d="M 0 360 
L 576 360 
L 576 0 
L 0 0 
z
" style="fill: #fdf6e3"/>
  </g>
  <g id="axes_1">
   <g id="patch_2">
    <path d="M 38.95 323.72 
L 560.88 323.72 
L 560.88 15.12 
L 38.95 15.12 
z
" style="fill: #fdf6e3"/>
   </g>
   <g id="matplotlib.axis_1">
    <g id="xtick_1">
     <g id="line2d_1">
      <defs>
       <path id="m0fa1b6a2ad" d="M 0 0 
L 0 3.5 
" style="stroke: #002b36; stroke-width: 0.8"/>
      </defs>
      <g>
       <use xlink:href="#m0fa1b6a2ad" x="62.674091" y="323.72" style="fill: #002b36; stroke: #002b36; stroke-width: 0.8"/>
      </g>
     </g>
     <g id="text_1">
      <!-- −2.0 -->
      <g style="fill: #002b36" transform="translate(45.874091 341.36) scale(0.14 -0.14)">
       <defs>
        <path id="NotoSansMono-Regular-2212" d="M 448 1971 
L 448 2483 
L 3392 2483 
L 3392 1971 
L 448 1971 
z
" transform="scale(0.015625)"/>
        <path id="NotoSansMono-Regular-32" d="M 448 0 
L 448 486 
L 1664 1683 
Q 1984 1997 2208 2269 
Q 2432 2541 2550 2803 
Q 2669 3066 2669 3354 
Q 2669 3763 2445 3945 
Q 2221 4128 1875 4128 
Q 1574 4128 1308 4006 
Q 1043 3885 813 3699 
L 493 4096 
Q 666 4250 877 4371 
Q 1088 4493 1344 4563 
Q 1600 4634 1894 4634 
Q 2304 4634 2608 4486 
Q 2912 4339 3078 4060 
Q 3245 3782 3245 3373 
Q 3245 3027 3120 2716 
Q 2995 2406 2761 2108 
Q 2528 1811 2202 1491 
L 1222 538 
L 1222 512 
L 3488 512 
L 3488 0 
L 448 0 
z
" transform="scale(0.015625)"/>
        <path id="NotoSansMono-Regular-2e" d="M 1920 -64 
Q 1754 -64 1638 38 
Q 1523 141 1523 371 
Q 1523 614 1638 710 
Q 1754 806 1920 806 
Q 2086 806 2201 710 
Q 2317 614 2317 371 
Q 2317 141 2201 38 
Q 2086 -64 1920 -64 
z
" transform="scale(0.015625)"/>
        <path id="NotoSansMono-Regular-30" d="M 1914 -64 
Q 1382 -64 1043 217 
Q 704 499 544 1027 
Q 384 1555 384 2291 
Q 384 3034 537 3555 
Q 691 4077 1027 4355 
Q 1363 4634 1914 4634 
Q 2451 4634 2793 4358 
Q 3136 4083 3296 3558 
Q 3456 3034 3456 2291 
Q 3456 1734 3369 1299 
Q 3283 864 3100 560 
Q 2918 256 2624 96 
Q 2330 -64 1914 -64 
z
M 1184 640 
L 806 973 
L 2598 4006 
L 2931 3584 
L 1184 640 
z
M 1914 442 
Q 2438 442 2688 893 
Q 2938 1344 2938 2291 
Q 2938 2899 2829 3305 
Q 2720 3712 2493 3920 
Q 2266 4128 1914 4128 
Q 1568 4128 1350 3929 
Q 1133 3731 1027 3324 
Q 922 2918 922 2291 
Q 922 1402 1149 922 
Q 1376 442 1914 442 
z
" transform="scale(0.015625)"/>
       </defs>
       <use xlink:href="#NotoSansMono-Regular-2212"/>
       <use xlink:href="#NotoSansMono-Regular-32" transform="translate(59.999985 0)"/>
       <use xlink:href="#NotoSansMono-Regular-2e" transform="translate(119.999969 0)"/>
       <use xlink:href="#NotoSansMono-Regular-30" transform="translate(179.999954 0)"/>
      </g>
     </g>
    </g>
    <g id="xtick_2">
     <g id="line2d_2">
      <g>
       <use xlink:href="#m0fa1b6a2ad" x="121.984318" y="323.72" style="fill: #002b36; stroke: #002b36; stroke-width: 0.8"/>
      </g>
     </g>
     <g id="text_2">
      <!-- −1.5 -->
      <g style="fill: #002b36" transform="translate(105.184318 341.36) scale(0.14 -0.14)">
       <defs>
        <path id="NotoSansMono-Regular-31" d="M 1811 2854 
Q 1811 3034 1814 3242 
Q 1818 3450 1824 3645 
Q 1830 3840 1837 3981 
Q 1734 3923 1651 3884 
Q 1568 3846 1402 3763 
L 870 3488 
L 621 3923 
L 1894 4570 
L 2362 4570 
L 2362 0 
L 1811 0 
L 1811 2854 
z
M 851 0 
L 851 384 
L 1811 448 
L 2362 448 
L 3328 384 
L 3328 0 
L 851 0 
z
" transform="scale(0.015625)"/>
        <path id="NotoSansMono-Regular-35" d="M 1645 -64 
Q 1344 -64 1037 0 
Q 730 64 512 186 
L 512 730 
Q 730 589 1011 515 
Q 1293 442 1594 442 
Q 2131 442 2432 669 
Q 2733 896 2733 1370 
Q 2733 1690 2598 1904 
Q 2464 2118 2217 2227 
Q 1971 2336 1638 2336 
Q 1459 2336 1254 2307 
Q 1050 2278 890 2240 
L 608 2419 
L 781 4570 
L 3059 4570 
L 3059 4058 
L 1274 4058 
L 1152 2739 
Q 1286 2771 1481 2787 
Q 1677 2803 1824 2803 
Q 2240 2803 2579 2649 
Q 2918 2496 3120 2185 
Q 3322 1875 3322 1408 
Q 3322 960 3126 630 
Q 2931 301 2556 118 
Q 2182 -64 1645 -64 
z
" transform="scale(0.015625)"/>
       </defs>
       <use xlink:href="#NotoSansMono-Regular-2212"/>
       <use xlink:href="#NotoSansMono-Regular-31" transform="translate(59.999985 0)"/>
       <use xlink:href="#NotoSansMono-Regular-2e" transform="translate(119.999969 0)"/>
       <use xlink:href="#NotoSansMono-Regular-35" transform="translate(179.999954 0)"/>
      </g>
     </g>
    </g>
    <g id="xtick_3">
     <g id="line2d_3">
      <g>
       <use xlink:href="#m0fa1b6a2ad" x="181.294545" y="323.72" style="fill: #002b36; stroke: #002b36; stroke-width: 0.8"/>
      </g>
     </g>
     <g id="text_3">
      <!-- −1.0 -->
      <g style="fill: #002b36" transform="translate(164.494545 341.36) scale(0.14 -0.14)">
       <use xlink:href="#NotoSansMono-Regular-2212"/>
       <use xlink:href="#NotoSansMono-Regular-31" transform="translate(59.999985 0)"/>
       <use xlink:href="#NotoSansMono-Regular-2e" transform="translate(119.999969 0)"/>
       <use xlink:href="#NotoSansMono-Regular-30" transform="translate(179.999954 0)"/>
      </g>
     </g>
    </g>
    <g id="xtick_4">
     <g id="line2d_4">
      <g>
       <use xlink:href="#m0fa1b6a2ad" x="240.604773" y="323.72" style="fill: #002b36; stroke: #002b36; stroke-width: 0.8"/>
      </g>
     </g>
     <g id="text_4">
      <!-- −0.5 -->
      <g style="fill: #002b36" transform="translate(223.804773 341.36) scale(0.14 -0.14)">
       <use xlink:href="#NotoSansMono-Regular-2212"/>
       <use xlink:href="#NotoSansMono-Regular-30" transform="translate(59.999985 0)"/>
       <use xlink:href="#NotoSansMono-Regular-2e" transform="translate(119.999969 0)"/>
       <use xlink:href="#NotoSansMono-Regular-35" transform="translate(179.999954 0)"/>
      </g>
     </g>
    </g>
    <g id="xtick_5">
     <g id="line2d_5">
      <g>
       <use xlink:href="#m0fa1b6a2ad" x="299.915" y="323.72" style="fill: #002b36; stroke: #002b36; stroke-width: 0.8"/>
      </g>
     </g>
     <g id="text_5">
      <!-- 0.0 -->
      <g style="fill: #002b36" transform="translate(287.315 341.36) scale(0.14 -0.14)">
       <use xlink:href="#NotoSansMono-Regular-30"/>
       <use xlink:href="#NotoSansMono-Regular-2e" transform="translate(59.999985 0)"/>
       <use xlink:href="#NotoSansMono-Regular-30" transform="translate(119.999969 0)"/>
      </g>
     </g>
    </g>
    <g id="xtick_6">
     <g id="line2d_6">
      <g>
       <use xlink:href="#m0fa1b6a2ad" x="359.225227" y="323.72" style="fill: #002b36; stroke: #002b36; stroke-width: 0.8"/>
      </g>
     </g>
     <g id="text_6">
      <!-- 0.5 -->
      <g style="fill: #002b36" transform="translate(346.625227 341.36) scale(0.14 -0.14)">
       <use xlink:href="#NotoSansMono-Regular-30"/>
       <use xlink:href="#NotoSansMono-Regular-2e" transform="translate(59.999985 0)"/>
       <use xlink:href="#NotoSansMono-Regular-35" transform="translate(119.999969 0)"/>
      </g>
     </g>
    </g>
    <g id="xtick_7">
     <g id="line2d_7">
      <g>
       <use xlink:href="#m0fa1b6a2ad" x="418.535455" y="323.72" style="fill: #002b36; stroke: #002b36; stroke-width: 0.8"/>
      </g>
     </g>
     <g id="text_7">
      <!-- 1.0 -->
      <g style="fill: #002b36" transform="translate(405.935455 341.36) scale(0.14 -0.14)">
       <use xlink:href="#NotoSansMono-Regular-31"/>
       <use xlink:href="#NotoSansMono-Regular-2e" transform="translate(59.999985 0)"/>
       <use xlink:href="#NotoSansMono-Regular-30" transform="translate(119.999969 0)"/>
      </g>
     </g>
    </g>
    <g id="xtick_8">
     <g id="line2d_8">
      <g>
       <use xlink:href="#m0fa1b6a2ad" x="477.845682" y="323.72" style="fill: #002b36; stroke: #002b36; stroke-width: 0.8"/>
      </g>
     </g>
     <g id="text_8">
      <!-- 1.5 -->
      <g style="fill: #002b36" transform="translate(465.245682 341.36) scale(0.14 -0.14)">
       <use xlink:href="#NotoSansMono-Regular-31"/>
       <use xlink:href="#NotoSansMono-Regular-2e" transform="translate(59.999985 0)"/>
       <use xlink:href="#NotoSansMono-Regular-35" transform="translate(119.999969 0)"/>
      </g>
     </g>
    </g>
    <g id="xtick_9">
     <g id="line2d_9">
      <g>
       <use xlink:href="#m0fa1b6a2ad" x="537.155909" y="323.72" style="fill: #002b36; stroke: #002b36; stroke-width: 0.8"/>
      </g>
     </g>
     <g id="text_9">
      <!-- 2.0 -->
      <g style="fill: #002b36" transform="translate(524.555909 341.36) scale(0.14 -0.14)">
       <use xlink:href="#NotoSansMono-Regular-32"/>
       <use xlink:href="#NotoSansMono-Regular-2e" transform="translate(59.999985 0)"/>
       <use xlink:href="#NotoSansMono-Regular-30" transform="translate(119.999969 0)"/>
      </g>
     </g>
    </g>
   </g>
   <g id="matplotlib.axis_2">
    <g id="ytick_1">
     <g id="line2d_10">
      <defs>
       <path id="m33f2ef272d" d="M 0 0 
L -3.5 0 
" style="stroke: #002b36; stroke-width: 0.8"/>
      </defs>
      <g>
       <use xlink:href="#m33f2ef272d" x="38.95" y="310.621479" style="fill: #002b36; stroke: #002b36; stroke-width: 0.8"/>
      </g>
     </g>
     <g id="text_10">
      <!-- −4 -->
      <g style="fill: #002b36" transform="translate(15.15 315.941479) scale(0.14 -0.14)">
       <defs>
        <path id="NotoSansMono-Regular-34" d="M 2304 0 
L 2304 1024 
L 320 1024 
L 320 1498 
L 2202 4595 
L 2854 4595 
L 2854 1517 
L 3520 1517 
L 3520 1024 
L 2854 1024 
L 2854 0 
L 2304 0 
z
M 877 1517 
L 2304 1517 
L 2304 2656 
Q 2304 2829 2307 3021 
Q 2310 3213 2316 3398 
Q 2323 3584 2329 3741 
Q 2336 3898 2342 4006 
L 2317 4006 
Q 2272 3885 2185 3718 
Q 2099 3552 2035 3443 
L 877 1517 
z
" transform="scale(0.015625)"/>
       </defs>
       <use xlink:href="#NotoSansMono-Regular-2212"/>
       <use xlink:href="#NotoSansMono-Regular-34" transform="translate(59.999985 0)"/>
      </g>
     </g>
    </g>
    <g id="ytick_2">
     <g id="line2d_11">
      <g>
       <use xlink:href="#m33f2ef272d" x="38.95" y="275.321109" style="fill: #002b36; stroke: #002b36; stroke-width: 0.8"/>
      </g>
     </g>
     <g id="text_11">
      <!-- −3 -->
      <g style="fill: #002b36" transform="translate(15.15 280.641109) scale(0.14 -0.14)">
       <defs>
        <path id="NotoSansMono-Regular-33" d="M 1670 -64 
Q 1395 -64 1075 -9 
Q 755 45 474 186 
L 474 730 
Q 755 589 1081 515 
Q 1408 442 1709 442 
Q 2266 442 2522 678 
Q 2778 915 2778 1299 
Q 2778 1594 2640 1770 
Q 2502 1946 2246 2026 
Q 1990 2106 1619 2106 
L 1146 2106 
L 1146 2618 
L 1619 2618 
Q 1952 2618 2176 2723 
Q 2400 2829 2518 3017 
Q 2637 3206 2637 3450 
Q 2637 3770 2435 3949 
Q 2234 4128 1843 4128 
Q 1517 4128 1245 4016 
Q 973 3904 781 3776 
L 493 4166 
Q 736 4358 1088 4496 
Q 1440 4634 1882 4634 
Q 2323 4634 2620 4486 
Q 2918 4339 3068 4086 
Q 3219 3834 3219 3501 
Q 3219 3194 3100 2966 
Q 2982 2739 2768 2598 
Q 2554 2458 2266 2406 
L 2266 2387 
Q 2624 2342 2867 2201 
Q 3110 2061 3235 1827 
Q 3360 1594 3360 1267 
Q 3360 883 3181 582 
Q 3002 282 2630 109 
Q 2259 -64 1670 -64 
z
" transform="scale(0.015625)"/>
       </defs>
       <use xlink:href="#NotoSansMono-Regular-2212"/>
       <use xlink:href="#NotoSansMono-Regular-33" transform="translate(59.999985 0)"/>
      </g>
     </g>
    </g>
    <g id="ytick_3">
     <g id="line2d_12">
      <g>
       <use xlink:href="#m33f2ef272d" x="38.95" y="240.020739" style="fill: #002b36; stroke: #002b36; stroke-width: 0.8"/>
      </g>
     </g>
     <g id="text_12">
      <!-- −2 -->
      <g style="fill: #002b36" transform="translate(15.15 245.340739) scale(0.14 -0.14)">
       <use xlink:href="#NotoSansMono-Regular-2212"/>
       <use xlink:href="#NotoSansMono-Regular-32" transform="translate(59.999985 0)"/>
      </g>
     </g>
    </g>
    <g id="ytick_4">
     <g id="line2d_13">
      <g>
       <use xlink:href="#m33f2ef272d" x="38.95" y="204.72037" style="fill: #002b36; stroke: #002b36; stroke-width: 0.8"/>
      </g>
     </g>
     <g id="text_13">
      <!-- −1 -->
      <g style="fill: #002b36" transform="translate(15.15 210.04037) scale(0.14 -0.14)">
       <use xlink:href="#NotoSansMono-Regular-2212"/>
       <use xlink:href="#NotoSansMono-Regular-31" transform="translate(59.999985 0)"/>
      </g>
     </g>
    </g>
    <g id="ytick_5">
     <g id="line2d_14">
      <g>
       <use xlink:href="#m33f2ef272d" x="38.95" y="169.42" style="fill: #002b36; stroke: #002b36; stroke-width: 0.8"/>
      </g>
     </g>
     <g id="text_14">
      <!-- 0 -->
      <g style="fill: #002b36" transform="translate(23.55 174.74) scale(0.14 -0.14)">
       <use xlink:href="#NotoSansMono-Regular-30"/>
      </g>
     </g>
    </g>
    <g id="ytick_6">
     <g id="line2d_15">
      <g>
       <use xlink:href="#m33f2ef272d" x="38.95" y="134.11963" style="fill: #002b36; stroke: #002b36; stroke-width: 0.8"/>
      </g>
     </g>
     <g id="text_15">
      <!-- 1 -->
      <g style="fill: #002b36" transform="translate(23.55 139.43963) scale(0.14 -0.14)">
       <use xlink:href="#NotoSansMono-Regular-31"/>
      </g>
     </g>
    </g>
    <g id="ytick_7">
     <g id="line2d_16">
      <g>
       <use xlink:href="#m33f2ef272d" x="38.95" y="98.819261" style="fill: #002b36; stroke: #002b36; stroke-width: 0.8"/>
      </g>
     </g>
     <g id="text_16">
      <!-- 2 -->
      <g style="fill: #002b36" transform="translate(23.55 104.139261) scale(0.14 -0.14)">
       <use xlink:href="#NotoSansMono-Regular-32"/>
      </g>
     </g>
    </g>
    <g id="ytick_8">
     <g id="line2d_17">
      <g>
       <use xlink:href="#m33f2ef272d" x="38.95" y="63.518891" style="fill: #002b36; stroke: #002b36; stroke-width: 0.8"/>
      </g>
     </g>
     <g id="text_17">
      <!-- 3 -->
      <g style="fill: #002b36" transform="translate(23.55 68.838891) scale(0.14 -0.14)">
       <use xlink:href="#NotoSansMono-Regular-33"/>
      </g>
     </g>
    </g>
    <g id="ytick_9">
     <g id="line2d_18">
      <g>
       <use xlink:href="#m33f2ef272d" x="38.95" y="28.218521" style="fill: #002b36; stroke: #002b36; stroke-width: 0.8"/>
      </g>
     </g>
     <g id="text_18">
      <!-- 4 -->
      <g style="fill: #002b36" transform="translate(23.55 33.538521) scale(0.14 -0.14)">
       <use xlink:href="#NotoSansMono-Regular-34"/>
      </g>
     </g>
    </g>
   </g>
   <g id="line2d_19">
    <path d="M 62.674091 169.65965 
L 63.148623 170.042529 
L 63.480787 170.059983 
L 63.860407 169.814295 
L 65.141636 168.717663 
L 65.4738 168.817691 
L 65.948332 169.253144 
L 66.802485 170.09267 
L 67.182105 170.162294 
L 67.561754 169.980351 
L 68.13117 169.392451 
L 68.842982 168.716492 
L 69.222602 168.618034 
L 69.602222 168.753545 
L 70.124211 169.234994 
L 71.120703 170.196083 
L 71.547779 170.279312 
L 71.9274 170.127768 
L 72.449388 169.652988 
L 73.540821 168.594246 
L 73.967897 168.48363 
L 74.394973 168.617343 
L 74.916933 169.05257 
L 76.293074 170.352973 
L 76.72015 170.440709 
L 77.147226 170.309408 
L 77.669215 169.900226 
L 79.377519 168.353891 
L 79.852052 168.307397 
L 80.326584 168.496901 
L 80.943456 169.019819 
L 82.556877 170.528504 
L 83.078837 170.668942 
L 83.553369 170.576162 
L 84.122814 170.216671 
L 85.024422 169.315119 
L 86.068371 168.33708 
L 86.685271 168.047847 
L 87.207259 168.036486 
L 87.776676 168.265521 
L 88.488488 168.833407 
L 90.718781 170.847906 
L 91.335653 171.022607 
L 91.905098 170.956754 
L 92.52197 170.655746 
L 93.328695 169.988199 
L 95.701328 167.8405 
L 96.413112 167.574657 
L 97.030012 167.567309 
L 97.694341 167.786228 
L 98.453609 168.281576 
L 99.59247 169.333209 
L 101.395687 170.988924 
L 102.249839 171.476833 
L 103.00908 171.663846 
L 103.720864 171.614499 
L 104.480132 171.334748 
L 105.381713 170.74764 
L 106.662941 169.608693 
L 108.94069 167.559253 
L 109.984667 166.934838 
L 110.886276 166.650064 
L 111.740428 166.616332 
L 112.59458 166.807145 
L 113.543617 167.255094 
L 114.682506 168.052548 
L 116.438266 169.59838 
L 118.858356 171.685724 
L 120.18704 172.528296 
L 121.325901 172.988823 
L 122.369877 173.175469 
L 123.413826 173.134621 
L 124.505259 172.861723 
L 125.691575 172.328706 
L 127.115172 171.427558 
L 129.013273 169.934757 
L 133.853479 166.008865 
L 135.561784 164.96884 
L 137.080293 164.29556 
L 138.503862 163.89924 
L 139.927458 163.734316 
L 141.351055 163.79409 
L 142.82208 164.076083 
L 144.435473 164.615662 
L 146.23869 165.46058 
L 148.374071 166.718883 
L 151.173808 168.648688 
L 161.138929 175.750218 
L 163.986095 177.382184 
L 166.643464 178.652969 
L 169.205921 179.635675 
L 171.768379 180.380616 
L 174.330836 180.896333 
L 176.988205 181.203858 
L 179.740459 181.29854 
L 182.682543 181.173955 
L 185.814438 180.816894 
L 189.278504 180.192621 
L 193.12219 179.268257 
L 197.535313 177.971577 
L 202.802581 176.184039 
L 209.683257 173.599845 
L 223.34971 168.164745 
L 234.501148 163.853689 
L 242.757946 160.897126 
L 250.113154 158.496284 
L 256.946374 156.497495 
L 263.447425 154.826875 
L 269.663766 153.457463 
L 275.690289 152.355808 
L 281.574449 151.504747 
L 287.363698 150.891376 
L 293.058053 150.509951 
L 298.752409 150.351816 
L 304.399302 150.416808 
L 310.093657 150.705475 
L 315.83546 151.220961 
L 321.624717 151.964401 
L 327.55633 152.952397 
L 333.630307 154.192176 
L 339.894096 155.700049 
L 346.442597 157.508936 
L 353.323269 159.643253 
L 360.773375 162.191681 
L 369.172545 165.30669 
L 380.418895 169.736528 
L 394.70222 175.335067 
L 400.96601 177.54177 
L 405.853658 179.034901 
L 409.982066 180.069833 
L 413.635942 180.759497 
L 416.910198 181.154595 
L 419.899731 181.297251 
L 422.699455 181.214153 
L 425.404266 180.911199 
L 428.014179 180.392211 
L 430.529181 179.667468 
L 433.044196 178.713848 
L 435.606653 177.505855 
L 438.311465 175.982932 
L 441.300998 174.039233 
L 445.19214 171.223032 
L 451.076309 166.965392 
L 453.448942 165.536645 
L 455.394513 164.615667 
L 457.055376 164.063709 
L 458.573871 163.783374 
L 459.997454 163.738198 
L 461.421036 163.918441 
L 462.844633 164.330193 
L 464.315672 164.993871 
L 465.929065 165.976365 
L 467.82718 167.40522 
L 473.853703 172.168865 
L 475.182387 172.810014 
L 476.321262 173.119945 
L 477.365225 173.181067 
L 478.409187 173.015253 
L 479.45315 172.622952 
L 480.592024 171.956364 
L 482.015607 170.843033 
L 486.381281 167.200339 
L 487.377788 166.760506 
L 488.279396 166.603946 
L 489.133549 166.688965 
L 489.987701 167.002382 
L 490.936766 167.594203 
L 492.170538 168.649268 
L 494.875349 171.055644 
L 495.776958 171.51938 
L 496.536212 171.670045 
L 497.247997 171.588879 
L 498.007251 171.266842 
L 498.861404 170.652563 
L 500.23753 169.333209 
L 501.613671 168.102849 
L 502.420367 167.665097 
L 503.08471 167.544616 
L 503.701596 167.648767 
L 504.365938 167.985931 
L 505.220091 168.694565 
L 507.545282 170.797287 
L 508.209624 171.016768 
L 508.779069 170.973398 
L 509.395955 170.685585 
L 510.155195 170.052673 
L 512.195678 168.186456 
L 512.765109 168.017764 
L 513.287097 168.089047 
L 513.856527 168.405334 
L 514.615768 169.112044 
L 515.991908 170.426288 
L 516.561339 170.656725 
L 517.035871 170.623503 
L 517.557859 170.35135 
L 518.269643 169.684792 
L 519.50343 168.496897 
L 520.025404 168.301105 
L 520.499937 168.371772 
L 521.021925 168.709834 
L 521.876077 169.603444 
L 522.635318 170.282252 
L 523.10985 170.440709 
L 523.536926 170.352973 
L 524.011458 170.018892 
L 525.814661 168.486598 
L 526.241738 168.570109 
L 526.71627 168.923948 
L 528.234765 170.271627 
L 528.614385 170.237918 
L 529.041461 169.957583 
L 530.607412 168.618034 
L 530.987032 168.716501 
L 531.461564 169.123013 
L 532.505527 170.121782 
L 532.885147 170.14894 
L 533.264767 169.92673 
L 533.976565 169.147855 
L 534.498554 168.749508 
L 534.830718 168.740146 
L 535.210338 168.979915 
L 536.491567 170.081083 
L 536.823745 169.965692 
L 537.155909 169.65965 
L 537.155909 169.65965 
" clip-path="url(#p5071ac0617)" style="fill: none; stroke: #6c71c4; stroke-width: 1.5; stroke-linecap: square"/>
   </g>
   <g id="line2d_20">
    <path d="M 62.674091 301.522134 
L 62.911343 268.107975 
L 63.385875 157.73067 
L 63.907864 50.51594 
L 64.145144 30.578071 
L 64.240028 29.147273 
L 64.33494 31.506974 
L 64.524764 47.077147 
L 64.809472 93.24075 
L 65.948332 304.239258 
L 66.090701 308.58088 
L 66.138157 308.3876 
L 66.233069 305.568043 
L 66.422865 290.653101 
L 66.755029 239.85491 
L 67.893918 39.367453 
L 68.13117 31.445889 
L 68.226082 33.155401 
L 68.415906 44.617325 
L 68.700614 79.413855 
L 69.270058 185.054756 
L 69.886931 283.930434 
L 70.171667 303.917563 
L 70.314007 306.098158 
L 70.408919 304.61485 
L 70.598743 294.851067 
L 70.883451 265.080157 
L 71.405439 180.013618 
L 72.16468 61.875169 
L 72.496844 37.547108 
L 72.686668 34.144455 
L 72.781552 35.374433 
L 72.971376 43.502616 
L 73.256084 68.505965 
L 73.730616 134.622633 
L 74.727137 276.99863 
L 75.059301 299.086391 
L 75.249125 303.119953 
L 75.296581 303.125651 
L 75.391465 301.945699 
L 75.58129 294.952567 
L 75.865998 273.872695 
L 76.34053 217.443021 
L 77.574302 60.366032 
L 77.906467 41.432157 
L 78.143747 37.367135 
L 78.238659 37.988575 
L 78.380999 41.274739 
L 78.618279 52.708301 
L 78.997899 84.347789 
L 79.662227 163.855311 
L 80.563836 265.769946 
L 80.990912 292.416906 
L 81.275649 299.28127 
L 81.370532 299.551491 
L 81.465444 298.821254 
L 81.655269 294.43261 
L 81.939977 280.988445 
L 82.367053 247.853041 
L 83.126293 167.080523 
L 84.027902 78.19513 
L 84.502434 50.571251 
L 84.834598 42.136135 
L 84.976966 41.403457 
L 85.071878 41.869609 
L 85.261674 45.040537 
L 85.546411 55.105354 
L 85.973487 80.603284 
L 86.637815 137.314865 
L 88.013956 257.769622 
L 88.535944 284.533156 
L 88.868108 293.107351 
L 89.10536 294.99347 
L 89.200272 294.763251 
L 89.342641 293.382824 
L 89.579893 288.412658 
L 89.912085 276.247773 
L 90.386589 249.96283 
L 91.145858 193.745902 
L 92.52197 91.29507 
L 93.13887 61.570879 
L 93.565947 50.136678 
L 93.850655 46.965749 
L 93.945567 46.702404 
L 93.993023 46.718168 
L 94.087935 47.041815 
L 94.277731 48.837695 
L 94.562467 54.293033 
L 94.942087 66.303294 
L 95.511504 92.777688 
L 96.413112 147.788964 
L 97.931621 240.433271 
L 98.595949 268.574657 
L 99.117937 282.454373 
L 99.497558 287.613829 
L 99.734838 288.708263 
L 99.829722 288.693046 
L 99.97209 288.192926 
L 100.20937 286.116196 
L 100.541534 280.718274 
L 101.016067 268.421591 
L 101.632939 245.737184 
L 102.582003 201.128184 
L 104.622472 103.210539 
L 105.381713 77.365741 
L 105.998613 63.190017 
L 106.473145 56.793437 
L 106.805309 54.676175 
L 106.995134 54.327077 
L 107.090017 54.383272 
L 107.279842 54.949013 
L 107.56455 56.900711 
L 107.94417 61.460567 
L 108.418702 70.043557 
L 109.083059 86.667194 
L 109.984667 115.617837 
L 113.780897 245.217816 
L 114.587593 262.317443 
L 115.251922 271.970712 
L 115.77391 276.664715 
L 116.15353 278.492829 
L 116.438266 279.006835 
L 116.580606 278.994539 
L 116.770431 278.704809 
L 117.055139 277.699318 
L 117.434759 275.335476 
L 117.909291 270.84008 
L 118.526191 262.687253 
L 119.332888 248.696376 
L 120.424292 225.309522 
L 122.369877 177.596912 
L 124.315434 131.83469 
L 125.549207 107.667704 
L 126.593184 91.347444 
L 127.447336 81.11878 
L 128.206576 74.46032 
L 128.870933 70.500872 
L 129.392921 68.581551 
L 129.819997 67.765174 
L 130.104705 67.58552 
L 130.341957 67.652009 
L 130.626694 67.984022 
L 131.006314 68.839889 
L 131.480846 70.542053 
L 132.097718 73.733037 
L 132.856959 79.030099 
L 133.758567 87.012715 
L 134.897456 99.201241 
L 136.463393 118.612365 
L 142.916992 201.655375 
L 144.482929 217.57062 
L 145.859069 229.386209 
L 147.092842 238.181058 
L 148.231731 244.792828 
L 149.275679 249.615684 
L 150.224744 253.014357 
L 151.078896 255.309699 
L 151.838136 256.775047 
L 152.549949 257.684575 
L 153.166821 258.12935 
L 153.736265 258.272325 
L 154.305682 258.172281 
L 154.875126 257.842818 
L 155.539482 257.186636 
L 156.298723 256.104531 
L 157.200331 254.400903 
L 158.24428 251.924324 
L 159.478052 248.399366 
L 160.996561 243.336192 
L 162.894662 236.166709 
L 165.504575 225.358072 
L 174.188468 188.741752 
L 176.940749 178.421739 
L 179.455751 169.836195 
L 181.828391 162.519147 
L 184.058677 156.337618 
L 186.241514 150.925839 
L 188.376895 146.217172 
L 190.46482 142.142545 
L 192.505296 138.634184 
L 194.545779 135.561132 
L 196.586255 132.890384 
L 198.579275 130.638958 
L 200.619744 128.668871 
L 202.660227 127.008089 
L 204.700703 125.628685 
L 206.788628 124.481426 
L 208.92401 123.558128 
L 211.154303 122.837006 
L 213.479501 122.322625 
L 215.899597 122.017249 
L 218.462054 121.921442 
L 221.166873 122.045351 
L 224.061501 122.403905 
L 227.14594 123.012131 
L 230.467645 123.896049 
L 234.026615 125.073859 
L 237.917757 126.60075 
L 242.093611 128.482951 
L 246.601632 130.76351 
L 251.441835 133.465304 
L 256.661662 136.638056 
L 262.308561 140.336243 
L 268.429979 144.615747 
L 275.215758 149.636658 
L 283.045481 155.716208 
L 293.010599 163.753479 
L 319.489336 185.253321 
L 327.319065 191.236025 
L 334.10484 196.147197 
L 340.226264 200.307356 
L 345.825707 203.848718 
L 350.998078 206.862195 
L 355.790825 209.402615 
L 360.251401 211.519078 
L 364.379809 213.234826 
L 368.176039 214.576362 
L 371.687561 215.586242 
L 374.961802 216.298367 
L 377.998792 216.731973 
L 380.798515 216.910747 
L 383.408429 216.860363 
L 385.875974 216.594914 
L 388.248621 216.114859 
L 390.478914 215.438406 
L 392.614295 214.562643 
L 394.70222 213.466867 
L 396.742703 212.142997 
L 398.735731 210.583892 
L 400.728743 208.736076 
L 402.674314 206.627567 
L 404.619885 204.19097 
L 406.565456 201.398361 
L 408.558484 198.138609 
L 410.551496 194.444633 
L 412.59198 190.181758 
L 414.679905 185.285735 
L 416.815286 179.69225 
L 418.998123 173.341106 
L 421.275858 166.022872 
L 423.695961 157.489341 
L 426.353331 147.286314 
L 429.532674 134.145944 
L 438.074199 98.276799 
L 439.877416 91.945378 
L 441.348454 87.546508 
L 442.534771 84.642906 
L 443.531291 82.735452 
L 444.385444 81.54243 
L 445.097228 80.894057 
L 445.714129 80.608216 
L 446.283559 80.587672 
L 446.805533 80.785942 
L 447.374977 81.25169 
L 447.991864 82.064953 
L 448.656206 83.318211 
L 449.415446 85.254482 
L 450.269599 88.10821 
L 451.171207 91.933671 
L 452.167714 97.174041 
L 453.259132 104.171272 
L 454.445463 113.290968 
L 455.774148 125.357113 
L 457.245186 140.875818 
L 458.953491 161.367609 
L 461.373595 193.421674 
L 464.552938 235.16389 
L 465.976521 250.893433 
L 467.020483 260.181639 
L 467.874636 265.936672 
L 468.538978 269.060621 
L 469.060966 270.58946 
L 469.440587 271.151549 
L 469.725309 271.254471 
L 469.962575 271.124701 
L 470.247283 270.703509 
L 470.626903 269.679536 
L 471.101435 267.635326 
L 471.67088 264.03064 
L 472.335208 258.204701 
L 473.094462 249.396803 
L 473.948615 236.804296 
L 474.992577 217.817019 
L 476.273806 189.984081 
L 478.361731 138.738787 
L 480.117492 97.793604 
L 481.161455 78.368295 
L 481.920709 67.99992 
L 482.490139 62.807313 
L 482.917215 60.553563 
L 483.201938 59.888813 
L 483.391748 59.833173 
L 483.581558 60.095214 
L 483.818824 60.878086 
L 484.150988 62.839648 
L 484.578064 66.869069 
L 485.100053 74.109497 
L 485.716939 85.891601 
L 486.476193 104.891646 
L 487.425244 134.563813 
L 488.943739 190.162068 
L 490.509689 245.15429 
L 491.363842 267.776223 
L 491.980728 278.720926 
L 492.407804 283.077647 
L 492.692526 284.371631 
L 492.834881 284.51294 
L 492.977235 284.309258 
L 493.167045 283.492965 
L 493.451767 281.085257 
L 493.831387 275.649983 
L 494.305919 265.318539 
L 494.922806 246.322484 
L 495.68206 215.509738 
L 496.915833 154.666392 
L 498.339415 87.298136 
L 499.051214 63.637005 
L 499.525746 53.976724 
L 499.85791 50.647074 
L 500.04772 50.107288 
L 500.142632 50.220664 
L 500.284986 50.876871 
L 500.522252 53.27995 
L 500.854431 59.402311 
L 501.281507 71.903939 
L 501.850937 96.049376 
L 502.610177 138.795549 
L 504.793015 268.769174 
L 505.315003 285.678281 
L 505.647167 291.089544 
L 505.836977 292.121832 
L 505.931889 292.055217 
L 506.074243 291.215384 
L 506.311509 287.82623 
L 506.643688 278.927739 
L 507.070764 260.686396 
L 507.640194 226.080166 
L 508.636701 148.90142 
L 509.633221 77.262642 
L 510.155195 53.309113 
L 510.487374 45.456949 
L 510.72464 43.84653 
L 510.819538 44.176835 
L 511.009348 46.534963 
L 511.29407 54.307416 
L 511.67369 72.267766 
L 512.195678 109.254435 
L 513.144729 197.026564 
L 513.998881 267.965589 
L 514.473414 291.129075 
L 514.758136 296.970492 
L 514.853034 297.436543 
L 514.90049 297.384227 
L 515.042844 296.07496 
L 515.28011 290.045969 
L 515.612288 273.759345 
L 516.08682 236.501525 
L 516.893517 150.45647 
L 517.747669 67.351986 
L 518.174745 44.406902 
L 518.412012 39.529441 
L 518.50691 39.297885 
L 518.601822 40.07229 
L 518.791632 44.651285 
L 519.076354 58.930571 
L 519.50343 95.284135 
L 520.215214 181.094915 
L 521.021925 272.141285 
L 521.401545 295.858468 
L 521.638811 301.321398 
L 521.686253 301.472865 
L 521.733709 301.303959 
L 521.876077 298.864471 
L 522.113329 288.418533 
L 522.445508 261.291534 
L 522.967482 196.313871 
L 524.0589 56.643291 
L 524.391079 38.072376 
L 524.533433 35.714298 
L 524.580889 35.720122 
L 524.675787 36.934471 
L 524.865611 44.161248 
L 525.150319 66.450983 
L 525.577395 120.98972 
L 526.811182 292.180695 
L 527.09589 304.322377 
L 527.143346 304.695554 
L 527.190802 304.580579 
L 527.2857 302.878987 
L 527.47551 293.635817 
L 527.760232 266.085808 
L 528.234765 192.834644 
L 529.136373 52.051176 
L 529.421081 34.22515 
L 529.515993 32.741842 
L 529.563449 32.878741 
L 529.658347 34.922909 
L 529.848157 46.009418 
L 530.13288 78.755965 
L 530.654868 172.510866 
L 531.31921 284.761228 
L 531.603918 305.684599 
L 531.69883 307.394111 
L 531.746286 307.205839 
L 531.841184 304.728714 
L 532.030994 291.512705 
L 532.315717 253.039942 
L 532.932603 127.345262 
L 533.407135 48.186899 
L 533.691843 30.4524 
L 533.739299 30.25912 
L 533.834211 32.334655 
L 534.024022 46.189197 
L 534.308744 88.713381 
L 535.542516 308.982563 
L 535.589972 309.692727 
L 535.637414 309.453739 
L 535.732326 306.118449 
L 535.922136 288.32406 
L 536.254315 227.037184 
L 537.155909 37.317866 
L 537.155909 37.317866 
" clip-path="url(#p5071ac0617)" style="fill: none; stroke: #cb4b16; stroke-width: 1.5; stroke-linecap: square"/>
   </g>
   <g id="patch_3">
    <path d="M 38.95 323.72 
L 38.95 15.12 
" style="fill: none; stroke: #002b36; stroke-width: 0.8; stroke-linejoin: miter; stroke-linecap: square"/>
   </g>
   <g id="patch_4">
    <path d="M 560.88 323.72 
L 560.88 15.12 
" style="fill: none; stroke: #002b36; stroke-width: 0.8; stroke-linejoin: miter; stroke-linecap: square"/>
   </g>
   <g id="patch_5">
    <path d="M 38.95 323.72 
L 560.88 323.72 
" style="fill: none; stroke: #002b36; stroke-width: 0.8; stroke-linejoin: miter; stroke-linecap: square"/>
   </g>
   <g id="patch_6">
    <path d="M 38.95 15.12 
L 560.88 15.12 
" style="fill: none; stroke: #002b36; stroke-width: 0.8; stroke-linejoin: miter; stroke-linecap: square"/>
   </g>
   <g id="legend_1">
    <g id="patch_7">
     <path d="M 256.515 316.72 
L 343.315 316.72 
Q 346.115 316.72 346.115 313.92 
L 346.115 273.32 
Q 346.115 270.52 343.315 270.52 
L 256.515 270.52 
Q 253.715 270.52 253.715 273.32 
L 253.715 313.92 
Q 253.715 316.72 256.515 316.72 
z
" style="fill: #fdf6e3; opacity: 0.8; stroke: #cccccc; stroke-linejoin: miter"/>
    </g>
    <g id="line2d_21">
     <path d="M 259.315 281.86 
L 273.315 281.86 
L 287.315 281.86 
" style="fill: none; stroke: #6c71c4; stroke-width: 1.5; stroke-linecap: square"/>
    </g>
    <g id="text_19">
     <!-- f(x) -->
     <g style="fill: #002b36" transform="translate(298.515 286.76) scale(0.14 -0.14)">
      <defs>
       <path id="NotoSansMono-Regular-66" d="M 1542 0 
L 1542 2950 
L 422 2950 
L 422 3347 
L 1542 3430 
L 1542 3821 
Q 1542 4230 1699 4464 
Q 1856 4698 2137 4797 
Q 2419 4896 2790 4896 
Q 3072 4896 3283 4857 
Q 3494 4819 3648 4768 
L 3520 4326 
Q 3392 4365 3200 4393 
Q 3008 4422 2822 4422 
Q 2490 4422 2304 4281 
Q 2118 4141 2118 3744 
L 2118 3430 
L 3411 3430 
L 3411 2950 
L 2118 2950 
L 2118 0 
L 1542 0 
z
" transform="scale(0.015625)"/>
       <path id="NotoSansMono-Regular-28" d="M 2221 -1011 
Q 1734 -448 1507 265 
Q 1280 979 1280 1754 
Q 1280 2534 1507 3260 
Q 1734 3987 2221 4570 
L 2752 4570 
Q 2304 3968 2077 3245 
Q 1850 2522 1850 1760 
Q 1850 1018 2077 304 
Q 2304 -410 2746 -1011 
L 2221 -1011 
z
" transform="scale(0.015625)"/>
       <path id="NotoSansMono-Regular-78" d="M 288 0 
L 1587 1754 
L 352 3430 
L 998 3430 
L 1920 2144 
L 2842 3430 
L 3488 3430 
L 2246 1754 
L 3546 0 
L 2899 0 
L 1920 1363 
L 934 0 
L 288 0 
z
" transform="scale(0.015625)"/>
       <path id="NotoSansMono-Regular-29" d="M 1619 4570 
Q 2106 4006 2333 3292 
Q 2560 2579 2560 1805 
Q 2560 1024 2333 297 
Q 2106 -429 1619 -1011 
L 1088 -1011 
Q 1536 -410 1763 316 
Q 1990 1043 1990 1798 
Q 1990 2541 1763 3254 
Q 1536 3968 1094 4570 
L 1619 4570 
z
" transform="scale(0.015625)"/>
      </defs>
      <use xlink:href="#NotoSansMono-Regular-66"/>
      <use xlink:href="#NotoSansMono-Regular-28" transform="translate(59.999985 0)"/>
      <use xlink:href="#NotoSansMono-Regular-78" transform="translate(119.999969 0)"/>
      <use xlink:href="#NotoSansMono-Regular-29" transform="translate(179.999954 0)"/>
     </g>
    </g>
    <g id="line2d_22">
     <path d="M 259.315 302.86 
L 273.315 302.86 
L 287.315 302.86 
" style="fill: none; stroke: #cb4b16; stroke-width: 1.5; stroke-linecap: square"/>
    </g>
    <g id="text_20">
     <!-- f'(x) -->
     <g style="fill: #002b36" transform="translate(298.515 307.76) scale(0.14 -0.14)">
      <defs>
       <path id="NotoSansMono-Regular-27" d="M 1741 2918 
L 1613 4570 
L 2221 4570 
L 2093 2918 
L 1741 2918 
z
" transform="scale(0.015625)"/>
      </defs>
      <use xlink:href="#NotoSansMono-Regular-66"/>
      <use xlink:href="#NotoSansMono-Regular-27" transform="translate(59.999985 0)"/>
      <use xlink:href="#NotoSansMono-Regular-28" transform="translate(119.999969 0)"/>
      <use xlink:href="#NotoSansMono-Regular-78" transform="translate(179.999954 0)"/>
      <use xlink:href="#NotoSansMono-Regular-29" transform="translate(239.999939 0)"/>
     </g>
    </g>
   </g>
  </g>
 </g>
 <defs>
  <clipPath id="p5071ac0617">
   <rect x="38.95" y="15.12" width="521.93" height="308.6"/>
  </clipPath>
 </defs>
</svg>
